<?xml version="1.0" encoding="UTF-8" standalone="no"?>
<svg width="211px" height="261px" viewBox="0 0 211 261" version="1.1" xmlns="http://www.w3.org/2000/svg" xmlns:xlink="http://www.w3.org/1999/xlink">
    <defs></defs>
    <g stroke="none" stroke-width="1" fill="none" fill-rule="evenodd">
        <g transform="translate(0.000000, -7.000000)" fill="#FFFFFF">
            <g transform="translate(124.763811, 38.382748) rotate(-20.000000) translate(-124.763811, -38.382748) translate(86.763811, 11.882748)">
                <path d="M39.624607,11.5817318 L37.3848458,35.3576582 L35.1479561,11.5817318 C31.7854428,15.0275182 25.898891,22.5795335 25.898891,33.4337607 C25.898891,39.7797508 31.0388558,41.1006356 37.3848458,41.1006356 C43.7308358,41.1006356 48.8708006,39.7797508 48.8708006,33.4337607 C48.8708006,22.5795335 42.9842487,15.0275182 39.624607,11.5817318 Z M51.7422893,28.3512258 C51.7422893,28.3512258 52.2591572,23.6706992 57.8011304,17.3247092 C53.4651825,6.4130521 54.9296417,0.0957769712 54.9296417,0.0957769712 L63.5441078,17.3247092 L57.8011304,40.2966187 L51.7422893,28.3512258 Z M62.1370783,36.9656918 C63.5441078,35.1853688 66.9611794,32.4000248 69.5742341,31.6821526 C70.2088331,17.0662752 75.3172115,11.5817318 75.3172115,11.5817318 L75.3172115,33.6634798 L60.3567553,52.7014499 C60.3567553,52.7014499 62.0222188,44.8335709 62.1370783,36.9656918 Z M13.2356258,36.9656918 C11.8314679,35.1853688 8.41152482,32.4000248 5.7984701,31.6821526 C5.16674259,17.0662752 0.0554927089,11.5817318 0.0554927089,11.5817318 L0.0554927089,33.6634798 L15.0159488,52.7014499 C15.0159488,52.7014499 13.3504854,44.8335709 13.2356258,36.9656918 Z M23.343266,28.3512258 C23.343266,28.3512258 22.8292696,23.6706992 17.2844249,17.3247092 C21.6203728,6.4130521 20.1559136,0.0957769712 20.1559136,0.0957769712 L11.5414475,17.3247092 L17.2844249,40.2966187 L23.343266,28.3512258 Z"></path>
            </g>
            <path d="M149.776254,71.8411357 C146.262187,71.8411357 143.378851,68.9577989 143.378851,65.4437321 C143.378851,61.9296654 146.262187,59.0463286 149.776254,59.0463286 C153.290321,59.0463286 156.173658,61.9296654 156.173658,65.4437321 C156.173658,68.9577989 153.290321,71.8411357 149.776254,71.8411357 L149.776254,71.8411357 L149.776254,71.8411357 Z M84.2980332,232.445954 C59.2675085,228.83577 38.2760564,220.818488 22.9995393,213.755369 C-12.9520664,197.176182 2.63597318,188.255859 13.8089033,192.130343 C7.68181258,187.084503 9.75421091,181.94856 19.4854726,182.759498 C66.2495913,186.81419 120.312156,154.827173 120.312156,118.605254 C120.312156,92.8354317 106.255889,85.9875068 106.255889,66.3447749 C106.255889,48.2338156 116.978298,35.9796342 135.900196,35.9796342 C159.867933,35.9796342 163.021583,53.0093422 171.581489,58.8661201 C180.141395,64.8130022 194.197662,64.7228979 204.199236,62.1999782 C212.308621,60.2176842 211.767995,66.6150877 208.07372,71.3906143 C204.829966,75.6255152 200.324752,82.2031273 180.051291,87.1588624 C164.64346,90.9432419 151.848653,86.4380282 151.848653,103.287528 C151.848653,128.42662 185.72786,146.717788 185.72786,179.42564 C185.72786,200.870457 172.66274,234.389248 111.12152,234.389248 C106.680736,234.389248 102.329919,234.227801 98.0760654,233.92729 C94.2724146,242.582382 98.4168175,247.274159 98.4168175,247.274159 C113.193919,246.283012 131.034565,247.274159 131.313888,248.445515 C131.665295,250.337704 126.799664,251.058539 129.232479,253.130937 C131.485086,254.933022 137.431969,255.203335 137.431969,257.005421 C137.431969,258.447089 131.485086,259.438236 129.322584,261.871052 C128.061124,263.132511 132.926755,264.123658 132.485244,265.925744 C131.575191,269.980436 78.7740855,267.547621 78.7740855,255.563752 C78.7740855,249.423582 89.5645999,247.931632 84.2980332,232.445954 L84.2980332,232.445954 Z"></path>
        </g>
    </g>
</svg>